<?xml version="1.0" encoding="UTF-8"?>
<svg xmlns="http://www.w3.org/2000/svg" width="1200" height="900" viewBox="0 0 400 300" role="img" aria-label="Modern News theme preview">
  <defs><linearGradient id="pg-hero" x1="0%" y1="0%" x2="100%" y2="100%"><stop offset="0%" stop-color="#93c5fd"/><stop offset="45%" stop-color="#4f46e5" stop-opacity="0.8"/><stop offset="100%" stop-color="#1e3a5f" stop-opacity="0.75"/></linearGradient><linearGradient id="pg-t1" x1="0%" y1="0%" x2="100%" y2="100%"><stop offset="0%" stop-color="#93c5fd"/><stop offset="45%" stop-color="#4f46e5" stop-opacity="0.8"/><stop offset="100%" stop-color="#1e3a5f" stop-opacity="0.75"/></linearGradient><linearGradient id="pg-t2" x1="0%" y1="0%" x2="100%" y2="100%"><stop offset="0%" stop-color="#fbbf24"/><stop offset="55%" stop-color="#4f46e5" stop-opacity="0.85"/><stop offset="100%" stop-color="#78350f" stop-opacity="0.7"/></linearGradient></defs>
  <rect width="400" height="300" fill="#ffffff"/>
  <rect y="0" width="400" height="44" fill="#4f46e5"/>
    <rect x="156" y="10" width="88" height="22" rx="4" fill="#ffffff" opacity="0.95"/>
    <rect x="250" y="16" width="42" height="10" rx="2" fill="#ffffff" opacity="0.45"/>
    <rect x="300" y="16" width="36" height="10" rx="2" fill="#ffffff" opacity="0.45"/>
    <rect x="346" y="16" width="38" height="10" rx="2" fill="#ffffff" opacity="0.45"/>
    <rect x="20" y="56" width="360" height="52" rx="5" fill="#ffffff" stroke="#4f46e5" stroke-width="1"/>
    <rect x="36" y="68" width="220" height="8" rx="2" fill="#1e1b4b" opacity="0.28"/><rect x="36" y="82" width="280" height="8" rx="2" fill="#1e1b4b" opacity="0.23000000000000004"/>
    <rect x="20" y="118" width="88" height="66" rx="4" fill="url(#pg-t1)"/>
    <path d="M28 178 L50.8 154.3 L68.4 165.51999999999998 L98 170 L100 178 Z" fill="#000" opacity="0.12"/>
    <circle cx="90" cy="134" r="9" fill="#fff" opacity="0.35"/>
    <rect x="118" y="118" width="262" height="66" rx="4" fill="#ffffff" opacity="0.2"/>
    <rect x="130" y="128" width="200" height="8" rx="2" fill="#1e1b4b" opacity="0.28"/><rect x="130" y="142" width="160" height="8" rx="2" fill="#1e1b4b" opacity="0.23000000000000004"/><rect x="130" y="156" width="140" height="8" rx="2" fill="#1e1b4b" opacity="0.18000000000000002"/>
    <rect x="20" y="194" width="88" height="66" rx="4" fill="url(#pg-t2)"/>
    <path d="M28 254 L50.8 230.3 L68.4 241.51999999999998 L98 246 L100 254 Z" fill="#000" opacity="0.12"/>
    <circle cx="90" cy="210" r="9" fill="#fff" opacity="0.35"/>
    <rect x="118" y="194" width="262" height="66" rx="4" fill="#ffffff" opacity="0.2"/>
    <rect x="130" y="204" width="190" height="8" rx="2" fill="#1e1b4b" opacity="0.28"/><rect x="130" y="218" width="150" height="8" rx="2" fill="#1e1b4b" opacity="0.23000000000000004"/>
    <rect y="268" width="400" height="32" fill="#4f46e5" opacity="0.92"/>
    <rect x="24" y="278" width="70" height="8" rx="2" fill="#ffffff" opacity="0.5"/>
    <rect x="110" y="278" width="55" height="8" rx="2" fill="#ffffff" opacity="0.35"/>
    <rect x="300" y="278" width="76" height="8" rx="2" fill="#ffffff" opacity="0.35"/>
</svg>