<?xml version="1.0" encoding="UTF-8"?>
<svg xmlns="http://www.w3.org/2000/svg" width="1200" height="900" viewBox="0 0 400 300" role="img" aria-label="Creative Studio theme preview">
  <defs><linearGradient id="pg-big" x1="0%" y1="0%" x2="100%" y2="100%"><stop offset="0%" stop-color="#fbbf24"/><stop offset="55%" stop-color="#7c3aed" stop-opacity="0.85"/><stop offset="100%" stop-color="#78350f" stop-opacity="0.7"/></linearGradient><linearGradient id="pg-s1" x1="0%" y1="0%" x2="100%" y2="100%"><stop offset="0%" stop-color="#93c5fd"/><stop offset="45%" stop-color="#7c3aed" stop-opacity="0.8"/><stop offset="100%" stop-color="#1e3a5f" stop-opacity="0.75"/></linearGradient><linearGradient id="pg-s2" x1="0%" y1="0%" x2="100%" y2="100%"><stop offset="0%" stop-color="#fbbf24"/><stop offset="55%" stop-color="#7c3aed" stop-opacity="0.85"/><stop offset="100%" stop-color="#78350f" stop-opacity="0.7"/></linearGradient></defs>
  
  <rect width="400" height="300" fill="#faf5ff"/>
    <rect x="0" y="0" width="140" height="300" fill="#7c3aed" opacity="0.12"/>
    <rect y="0" width="400" height="40" fill="#7c3aed"/>
    <rect x="16" y="10" width="88" height="22" rx="4" fill="#ffffff" opacity="0.95"/>
    <rect x="250" y="16" width="42" height="10" rx="2" fill="#ffffff" opacity="0.45"/>
    <rect x="300" y="16" width="36" height="10" rx="2" fill="#ffffff" opacity="0.45"/>
    <rect x="346" y="16" width="38" height="10" rx="2" fill="#ffffff" opacity="0.45"/>
    <rect x="20" y="52" width="220" height="120" rx="8" fill="url(#pg-big)"/>
    <path d="M28 166 L97 118 L141 138.39999999999998 L230 158 L232 166 Z" fill="#000" opacity="0.12"/>
    <circle cx="222" cy="68" r="9" fill="#fff" opacity="0.35"/>
    <rect x="252" y="52" width="128" height="56" rx="6" fill="#ffffff" stroke="#7c3aed" stroke-width="1"/>
    <rect x="266" y="66" width="96" height="8" rx="2" fill="#1e1b4b" opacity="0.28"/><rect x="266" y="80" width="88" height="8" rx="2" fill="#1e1b4b" opacity="0.23000000000000004"/>
    <rect x="252" y="118" width="60" height="54" rx="4" fill="url(#pg-s1)"/>
    <path d="M260 166 L273 147.7 L285 156.88 L302 158 L304 166 Z" fill="#000" opacity="0.12"/>
    <circle cx="294" cy="134" r="9" fill="#fff" opacity="0.35"/>
    <rect x="320" y="118" width="60" height="54" rx="4" fill="url(#pg-s2)"/>
    <path d="M328 166 L341 147.7 L353 156.88 L370 158 L372 166 Z" fill="#000" opacity="0.12"/>
    <circle cx="362" cy="134" r="9" fill="#fff" opacity="0.35"/>
    <rect x="20" y="184" width="360" height="10" rx="2" fill="#1e1b4b" opacity="0.18"/>
    <rect x="20" y="202" width="300" height="8" rx="2" fill="#1e1b4b" opacity="0.1"/>
    <rect y="268" width="400" height="32" fill="#7c3aed" opacity="0.92"/>
    <rect x="24" y="278" width="70" height="8" rx="2" fill="#ffffff" opacity="0.5"/>
    <rect x="110" y="278" width="55" height="8" rx="2" fill="#ffffff" opacity="0.35"/>
    <rect x="300" y="278" width="76" height="8" rx="2" fill="#ffffff" opacity="0.35"/>
</svg>