<?xml version="1.0" encoding="UTF-8"?>
<svg xmlns="http://www.w3.org/2000/svg" width="1200" height="900" viewBox="0 0 400 300" role="img" aria-label="Magazine Grid theme preview">
  <defs><linearGradient id="pg-h" x1="0%" y1="0%" x2="100%" y2="100%"><stop offset="0%" stop-color="#fbbf24"/><stop offset="55%" stop-color="#d97706" stop-opacity="0.85"/><stop offset="100%" stop-color="#78350f" stop-opacity="0.7"/></linearGradient><linearGradient id="pg-a" x1="0%" y1="0%" x2="100%" y2="100%"><stop offset="0%" stop-color="#93c5fd"/><stop offset="45%" stop-color="#d97706" stop-opacity="0.8"/><stop offset="100%" stop-color="#1e3a5f" stop-opacity="0.75"/></linearGradient><linearGradient id="pg-b" x1="0%" y1="0%" x2="100%" y2="100%"><stop offset="0%" stop-color="#86efac"/><stop offset="50%" stop-color="#d97706" stop-opacity="0.75"/><stop offset="100%" stop-color="#14532d" stop-opacity="0.8"/></linearGradient><linearGradient id="pg-c" x1="0%" y1="0%" x2="100%" y2="100%"><stop offset="0%" stop-color="#fbbf24"/><stop offset="55%" stop-color="#d97706" stop-opacity="0.85"/><stop offset="100%" stop-color="#78350f" stop-opacity="0.7"/></linearGradient></defs>
  <rect width="400" height="300" fill="#fffbeb"/>
  <rect y="0" width="400" height="44" fill="#d97706"/>
    <rect x="16" y="10" width="88" height="22" rx="4" fill="#ffffff" opacity="0.95"/>
    <rect x="250" y="16" width="42" height="10" rx="2" fill="#ffffff" opacity="0.45"/>
    <rect x="300" y="16" width="36" height="10" rx="2" fill="#ffffff" opacity="0.45"/>
    <rect x="346" y="16" width="38" height="10" rx="2" fill="#ffffff" opacity="0.45"/>
    <rect x="0" y="44" width="400" height="64" rx="0" fill="url(#pg-h)"/>
    <path d="M8 102 L140 79.2 L220.00000000000003 90.08 L390 94 L392 102 Z" fill="#000" opacity="0.12"/>
    <circle cx="382" cy="60" r="9" fill="#fff" opacity="0.35"/>
    <rect x="16" y="118" width="115" height="80" rx="4" fill="url(#pg-a)"/>
    <path d="M24 192 L56.25 162 L79.25 175.6 L121 184 L123 192 Z" fill="#000" opacity="0.12"/>
    <circle cx="113" cy="134" r="9" fill="#fff" opacity="0.35"/>
    <rect x="142" y="118" width="115" height="80" rx="4" fill="url(#pg-b)"/>
    <path d="M150 192 L182.25 162 L205.25 175.6 L247 184 L249 192 Z" fill="#000" opacity="0.12"/>
    <circle cx="239" cy="134" r="9" fill="#fff" opacity="0.35"/>
    <rect x="268" y="118" width="116" height="80" rx="4" fill="url(#pg-c)"/>
    <path d="M276 192 L308.6 162 L331.8 175.6 L374 184 L376 192 Z" fill="#000" opacity="0.12"/>
    <circle cx="366" cy="134" r="9" fill="#fff" opacity="0.35"/>
    <rect x="16" y="206" width="115" height="8" rx="2" fill="#292524" opacity="0.2"/>
    <rect x="142" y="206" width="115" height="8" rx="2" fill="#292524" opacity="0.2"/>
    <rect x="268" y="206" width="100" height="8" rx="2" fill="#292524" opacity="0.2"/>
    <rect x="16" y="222" width="180" height="36" rx="4" fill="#f0f0f1" opacity="0.45"/>
    <rect x="204" y="222" width="180" height="36" rx="4" fill="#f0f0f1" opacity="0.45"/>
    <rect y="268" width="400" height="32" fill="#d97706" opacity="0.92"/>
    <rect x="24" y="278" width="70" height="8" rx="2" fill="#ffffff" opacity="0.5"/>
    <rect x="110" y="278" width="55" height="8" rx="2" fill="#ffffff" opacity="0.35"/>
    <rect x="300" y="278" width="76" height="8" rx="2" fill="#ffffff" opacity="0.35"/>
</svg>