<?xml version="1.0" encoding="UTF-8"?>
<svg xmlns="http://www.w3.org/2000/svg" width="1200" height="900" viewBox="0 0 400 300" role="img" aria-label="Corporate Business theme preview">
  <defs><linearGradient id="pg-hero" x1="0%" y1="0%" x2="100%" y2="100%"><stop offset="0%" stop-color="#86efac"/><stop offset="50%" stop-color="#008a20" stop-opacity="0.75"/><stop offset="100%" stop-color="#14532d" stop-opacity="0.8"/></linearGradient><linearGradient id="pg-p1" x1="0%" y1="0%" x2="100%" y2="100%"><stop offset="0%" stop-color="#86efac"/><stop offset="50%" stop-color="#008a20" stop-opacity="0.75"/><stop offset="100%" stop-color="#14532d" stop-opacity="0.8"/></linearGradient><linearGradient id="pg-p2" x1="0%" y1="0%" x2="100%" y2="100%"><stop offset="0%" stop-color="#93c5fd"/><stop offset="45%" stop-color="#008a20" stop-opacity="0.8"/><stop offset="100%" stop-color="#1e3a5f" stop-opacity="0.75"/></linearGradient></defs>
  <rect width="400" height="300" fill="#ffffff"/>
  <rect y="0" width="400" height="44" fill="#008a20"/>
    <rect x="16" y="10" width="88" height="22" rx="4" fill="#ffffff" opacity="0.95"/>
    <rect x="250" y="16" width="42" height="10" rx="2" fill="#ffffff" opacity="0.45"/>
    <rect x="300" y="16" width="36" height="10" rx="2" fill="#ffffff" opacity="0.45"/>
    <rect x="346" y="16" width="38" height="10" rx="2" fill="#ffffff" opacity="0.45"/>
    <rect x="20" y="54" width="360" height="58" rx="5" fill="url(#pg-hero)"/>
    <path d="M28 106 L146 85.9 L218.00000000000003 95.75999999999999 L370 98 L372 106 Z" fill="#000" opacity="0.12"/>
    <circle cx="362" cy="70" r="9" fill="#fff" opacity="0.35"/>
    <rect x="20" y="124" width="228" height="120" rx="5" fill="#ffffff" stroke="#1d2327" stroke-width="0.4" opacity="0.15"/>
    <rect x="34" y="138" width="180" height="8" rx="2" fill="#1d2327" opacity="0.28"/><rect x="34" y="152" width="160" height="8" rx="2" fill="#1d2327" opacity="0.23000000000000004"/><rect x="34" y="166" width="190" height="8" rx="2" fill="#1d2327" opacity="0.18000000000000002"/>
    <rect x="34" y="188" width="90" height="44" rx="4" fill="url(#pg-p1)"/>
    <path d="M42 226 L65.5 212.2 L83.5 219.68 L114 218 L116 226 Z" fill="#000" opacity="0.12"/>
    <circle cx="106" cy="204" r="9" fill="#fff" opacity="0.35"/>
    <rect x="262" y="124" width="118" height="120" rx="5" fill="#f0f0f1" opacity="0.5"/>
    <rect x="276" y="138" width="82" height="8" rx="2" fill="#1d2327" opacity="0.28"/><rect x="276" y="152" width="74" height="8" rx="2" fill="#1d2327" opacity="0.23000000000000004"/><rect x="276" y="166" width="68" height="8" rx="2" fill="#1d2327" opacity="0.18000000000000002"/>
    <rect y="268" width="400" height="32" fill="#008a20" opacity="0.92"/>
    <rect x="24" y="278" width="70" height="8" rx="2" fill="#ffffff" opacity="0.5"/>
    <rect x="110" y="278" width="55" height="8" rx="2" fill="#ffffff" opacity="0.35"/>
    <rect x="300" y="278" width="76" height="8" rx="2" fill="#ffffff" opacity="0.35"/>
</svg>