<?xml version="1.0" encoding="UTF-8"?>
<svg xmlns="http://www.w3.org/2000/svg" width="1200" height="900" viewBox="0 0 400 300" role="img" aria-label="Classic Blog theme preview">
  <defs><linearGradient id="pg-hero" x1="0%" y1="0%" x2="100%" y2="100%"><stop offset="0%" stop-color="#93c5fd"/><stop offset="45%" stop-color="#2271b1" stop-opacity="0.8"/><stop offset="100%" stop-color="#1e3a5f" stop-opacity="0.75"/></linearGradient><linearGradient id="pg-p1" x1="0%" y1="0%" x2="100%" y2="100%"><stop offset="0%" stop-color="#86efac"/><stop offset="50%" stop-color="#2271b1" stop-opacity="0.75"/><stop offset="100%" stop-color="#14532d" stop-opacity="0.8"/></linearGradient><linearGradient id="pg-p2" x1="0%" y1="0%" x2="100%" y2="100%"><stop offset="0%" stop-color="#fbbf24"/><stop offset="55%" stop-color="#2271b1" stop-opacity="0.85"/><stop offset="100%" stop-color="#78350f" stop-opacity="0.7"/></linearGradient></defs>
  <rect width="400" height="300" fill="#ffffff"/>
  <rect y="0" width="400" height="44" fill="#2271b1"/>
    <rect x="16" y="10" width="88" height="22" rx="4" fill="#ffffff" opacity="0.95"/>
    <rect x="250" y="16" width="42" height="10" rx="2" fill="#ffffff" opacity="0.45"/>
    <rect x="300" y="16" width="36" height="10" rx="2" fill="#ffffff" opacity="0.45"/>
    <rect x="346" y="16" width="38" height="10" rx="2" fill="#ffffff" opacity="0.45"/>
    <rect x="0" y="44" width="400" height="78" rx="0" fill="url(#pg-hero)"/>
    <path d="M8 116 L140 86.9 L220.00000000000003 100.16 L390 108 L392 116 Z" fill="#000" opacity="0.12"/>
    <circle cx="382" cy="60" r="9" fill="#fff" opacity="0.35"/>
    <rect x="20" y="134" width="250" height="118" rx="5" fill="#ffffff" stroke="#1d2327" stroke-width="0.5" opacity="0.18"/>
    <rect x="32" y="148" width="180" height="8" rx="2" fill="#1d2327" opacity="0.28"/><rect x="32" y="162" width="140" height="8" rx="2" fill="#1d2327" opacity="0.23000000000000004"/><rect x="32" y="176" width="200" height="8" rx="2" fill="#1d2327" opacity="0.18000000000000002"/>
    <rect x="32" y="198" width="100" height="42" rx="4" fill="url(#pg-p1)"/>
    <path d="M40 234 L67 221.1 L87 228.24 L122 226 L124 234 Z" fill="#000" opacity="0.12"/>
    <circle cx="114" cy="214" r="9" fill="#fff" opacity="0.35"/>
    <rect x="282" y="134" width="98" height="118" rx="5" fill="#f0f0f1" opacity="0.55"/>
    <rect x="294" y="148" width="70" height="8" rx="2" fill="#1d2327" opacity="0.28"/><rect x="294" y="162" width="62" height="8" rx="2" fill="#1d2327" opacity="0.23000000000000004"/><rect x="294" y="176" width="74" height="8" rx="2" fill="#1d2327" opacity="0.18000000000000002"/>
    <rect x="20" y="262" width="170" height="0" opacity="0"/>
    <rect x="20" y="218" width="250" height="28" rx="4" fill="#ffffff" stroke="#1d2327" stroke-width="0.4" opacity="0.12"/>
    <rect y="268" width="400" height="32" fill="#2271b1" opacity="0.92"/>
    <rect x="24" y="278" width="70" height="8" rx="2" fill="#ffffff" opacity="0.5"/>
    <rect x="110" y="278" width="55" height="8" rx="2" fill="#ffffff" opacity="0.35"/>
    <rect x="300" y="278" width="76" height="8" rx="2" fill="#ffffff" opacity="0.35"/>
</svg>