<?xml version="1.0" encoding="UTF-8"?>
<svg xmlns="http://www.w3.org/2000/svg" width="1200" height="900" viewBox="0 0 400 300" role="img" aria-label="E-Commerce Store theme preview">
  <defs><linearGradient id="pg-p1" x1="0%" y1="0%" x2="100%" y2="100%"><stop offset="0%" stop-color="#93c5fd"/><stop offset="45%" stop-color="#111827" stop-opacity="0.8"/><stop offset="100%" stop-color="#1e3a5f" stop-opacity="0.75"/></linearGradient><linearGradient id="pg-p2" x1="0%" y1="0%" x2="100%" y2="100%"><stop offset="0%" stop-color="#fbbf24"/><stop offset="55%" stop-color="#111827" stop-opacity="0.85"/><stop offset="100%" stop-color="#78350f" stop-opacity="0.7"/></linearGradient><linearGradient id="pg-p3" x1="0%" y1="0%" x2="100%" y2="100%"><stop offset="0%" stop-color="#86efac"/><stop offset="50%" stop-color="#111827" stop-opacity="0.75"/><stop offset="100%" stop-color="#14532d" stop-opacity="0.8"/></linearGradient><linearGradient id="pg-p4" x1="0%" y1="0%" x2="100%" y2="100%"><stop offset="0%" stop-color="#93c5fd"/><stop offset="45%" stop-color="#111827" stop-opacity="0.8"/><stop offset="100%" stop-color="#1e3a5f" stop-opacity="0.75"/></linearGradient></defs>
  <rect width="400" height="300" fill="#ffffff"/>
  <rect y="0" width="400" height="44" fill="#111827"/>
    <rect x="16" y="10" width="88" height="22" rx="4" fill="#ffffff" opacity="0.95"/>
    <rect x="250" y="16" width="42" height="10" rx="2" fill="#ffffff" opacity="0.45"/>
    <rect x="300" y="16" width="36" height="10" rx="2" fill="#ffffff" opacity="0.45"/>
    <rect x="346" y="16" width="38" height="10" rx="2" fill="#ffffff" opacity="0.45"/>
    <rect x="20" y="54" width="360" height="28" rx="4" fill="#f0f0f1" opacity="0.55"/>
    <rect x="36" y="64" width="120" height="8" rx="2" fill="#111827" opacity="0.2"/>
    <rect x="20" y="92" width="82" height="82" rx="4" fill="url(#pg-p1)"/>
    <path d="M28 168 L48.7 137.1 L65.1 151.04 L92 160 L94 168 Z" fill="#000" opacity="0.12"/>
    <circle cx="84" cy="108" r="9" fill="#fff" opacity="0.35"/>
    <rect x="112" y="92" width="82" height="82" rx="4" fill="url(#pg-p2)"/>
    <path d="M120 168 L140.7 137.1 L157.1 151.04 L184 160 L186 168 Z" fill="#000" opacity="0.12"/>
    <circle cx="176" cy="108" r="9" fill="#fff" opacity="0.35"/>
    <rect x="204" y="92" width="82" height="82" rx="4" fill="url(#pg-p3)"/>
    <path d="M212 168 L232.7 137.1 L249.1 151.04 L276 160 L278 168 Z" fill="#000" opacity="0.12"/>
    <circle cx="268" cy="108" r="9" fill="#fff" opacity="0.35"/>
    <rect x="296" y="92" width="84" height="82" rx="4" fill="url(#pg-p4)"/>
    <path d="M304 168 L325.4 137.1 L342.2 151.04 L370 160 L372 168 Z" fill="#000" opacity="0.12"/>
    <circle cx="362" cy="108" r="9" fill="#fff" opacity="0.35"/>
    <rect x="20" y="182" width="82" height="8" rx="2" fill="#111827" opacity="0.18"/>
    <rect x="112" y="182" width="82" height="8" rx="2" fill="#111827" opacity="0.18"/>
    <rect x="204" y="182" width="82" height="8" rx="2" fill="#111827" opacity="0.18"/>
    <rect x="296" y="182" width="82" height="8" rx="2" fill="#111827" opacity="0.18"/>
    <rect x="20" y="198" width="360" height="56" rx="5" fill="#f0f0f1" opacity="0.35"/>
    <rect y="268" width="400" height="32" fill="#111827" opacity="0.92"/>
    <rect x="24" y="278" width="70" height="8" rx="2" fill="#ffffff" opacity="0.5"/>
    <rect x="110" y="278" width="55" height="8" rx="2" fill="#ffffff" opacity="0.35"/>
    <rect x="300" y="278" width="76" height="8" rx="2" fill="#ffffff" opacity="0.35"/>
</svg>