<?xml version="1.0" encoding="UTF-8"?>
<svg xmlns="http://www.w3.org/2000/svg" width="1200" height="900" viewBox="0 0 400 300" role="img" aria-label="Education Campus theme preview">
  <defs><linearGradient id="pg-hero" x1="0%" y1="0%" x2="100%" y2="100%"><stop offset="0%" stop-color="#93c5fd"/><stop offset="45%" stop-color="#1e40af" stop-opacity="0.8"/><stop offset="100%" stop-color="#1e3a5f" stop-opacity="0.75"/></linearGradient><linearGradient id="pg-c1" x1="0%" y1="0%" x2="100%" y2="100%"><stop offset="0%" stop-color="#86efac"/><stop offset="50%" stop-color="#1e40af" stop-opacity="0.75"/><stop offset="100%" stop-color="#14532d" stop-opacity="0.8"/></linearGradient><linearGradient id="pg-c2" x1="0%" y1="0%" x2="100%" y2="100%"><stop offset="0%" stop-color="#fbbf24"/><stop offset="55%" stop-color="#1e40af" stop-opacity="0.85"/><stop offset="100%" stop-color="#78350f" stop-opacity="0.7"/></linearGradient></defs>
  <rect width="400" height="300" fill="#f8fafc"/>
  <rect y="0" width="400" height="44" fill="#1e40af"/>
    <rect x="16" y="10" width="88" height="22" rx="4" fill="#ffffff" opacity="0.95"/>
    <rect x="250" y="16" width="42" height="10" rx="2" fill="#ffffff" opacity="0.45"/>
    <rect x="300" y="16" width="36" height="10" rx="2" fill="#ffffff" opacity="0.45"/>
    <rect x="346" y="16" width="38" height="10" rx="2" fill="#ffffff" opacity="0.45"/>
    <rect x="0" y="44" width="400" height="68" rx="0" fill="url(#pg-hero)"/>
    <path d="M8 106 L140 81.4 L220.00000000000003 92.96000000000001 L390 98 L392 106 Z" fill="#000" opacity="0.12"/>
    <circle cx="382" cy="60" r="9" fill="#fff" opacity="0.35"/>
    <rect x="20" y="122" width="175" height="118" rx="6" fill="#ffffff" stroke="#1e40af" stroke-width="0.8" opacity="0.25"/>
    <rect x="30" y="132" width="155" height="52" rx="4" fill="url(#pg-c1)"/>
    <path d="M38 178 L84.25 160.6 L115.25 169.44 L175 170 L177 178 Z" fill="#000" opacity="0.12"/>
    <circle cx="167" cy="148" r="9" fill="#fff" opacity="0.35"/>
    <rect x="30" y="194" width="150" height="8" rx="2" fill="#1e293b" opacity="0.28"/><rect x="30" y="208" width="130" height="8" rx="2" fill="#1e293b" opacity="0.23000000000000004"/>
    <rect x="205" y="122" width="175" height="118" rx="6" fill="#ffffff" stroke="#1e40af" stroke-width="0.8" opacity="0.25"/>
    <rect x="215" y="132" width="155" height="52" rx="4" fill="url(#pg-c2)"/>
    <path d="M223 178 L269.25 160.6 L300.25 169.44 L360 170 L362 178 Z" fill="#000" opacity="0.12"/>
    <circle cx="352" cy="148" r="9" fill="#fff" opacity="0.35"/>
    <rect x="215" y="194" width="150" height="8" rx="2" fill="#1e293b" opacity="0.28"/><rect x="215" y="208" width="130" height="8" rx="2" fill="#1e293b" opacity="0.23000000000000004"/>
    <rect y="268" width="400" height="32" fill="#1e40af" opacity="0.92"/>
    <rect x="24" y="278" width="70" height="8" rx="2" fill="#ffffff" opacity="0.5"/>
    <rect x="110" y="278" width="55" height="8" rx="2" fill="#ffffff" opacity="0.35"/>
    <rect x="300" y="278" width="76" height="8" rx="2" fill="#ffffff" opacity="0.35"/>
</svg>