<svg width="1280" height="640" viewBox="0 0 1280 640" fill="none" xmlns="http://www.w3.org/2000/svg">
  <rect width="1280" height="640" rx="36" fill="#030712"/>
  <circle cx="1040" cy="120" r="260" fill="url(#blueGlow)" opacity="0.45"/>
  <circle cx="170" cy="510" r="240" fill="url(#orangeGlow)" opacity="0.32"/>
  <g opacity="0.22">
    <circle cx="120" cy="120" r="2" fill="white"/>
    <circle cx="240" cy="92" r="1.5" fill="white"/>
    <circle cx="360" cy="154" r="1.6" fill="white"/>
    <circle cx="520" cy="90" r="1.8" fill="white"/>
    <circle cx="780" cy="144" r="1.4" fill="white"/>
    <circle cx="930" cy="70" r="2" fill="white"/>
    <circle cx="1130" cy="210" r="1.6" fill="white"/>
    <circle cx="110" cy="360" r="1.4" fill="white"/>
    <circle cx="430" cy="470" r="2" fill="white"/>
    <circle cx="700" cy="520" r="1.6" fill="white"/>
    <circle cx="980" cy="500" r="2" fill="white"/>
  </g>
  <path d="M111 403C302 230 526 155 783 179C954 195 1097 251 1213 347" stroke="#38BDF8" stroke-width="2" stroke-opacity="0.35"/>
  <path d="M66 468C278 308 513 251 771 295C943 324 1081 392 1186 499" stroke="#F97316" stroke-width="2" stroke-opacity="0.28"/>
  <rect x="724" y="148" width="438" height="324" rx="28" fill="white" fill-opacity="0.08" stroke="#7DD3FC" stroke-opacity="0.22"/>
  <rect x="760" y="188" width="366" height="42" rx="12" fill="#0F172A" stroke="#38BDF8" stroke-opacity="0.22"/>
  <rect x="760" y="258" width="154" height="154" rx="18" fill="#1E3A8A"/>
  <rect x="936" y="258" width="190" height="24" rx="8" fill="#E0F2FE" fill-opacity="0.8"/>
  <rect x="936" y="300" width="160" height="14" rx="7" fill="#94A3B8" fill-opacity="0.85"/>
  <rect x="936" y="326" width="176" height="14" rx="7" fill="#94A3B8" fill-opacity="0.5"/>
  <rect x="936" y="374" width="94" height="32" rx="16" fill="#38BDF8"/>
  <text x="118" y="190" fill="#7DD3FC" font-family="Arial, Helvetica, sans-serif" font-size="22" font-weight="700" letter-spacing="6">MISSION CONTROL CMS</text>
  <text x="116" y="282" fill="white" font-family="Arial, Helvetica, sans-serif" font-size="78" font-weight="900">NodePress CMS</text>
  <text x="120" y="340" fill="#CBD5E1" font-family="Arial, Helvetica, sans-serif" font-size="26">A WordPress-inspired publishing platform for Node.js, MySQL, and EJS.</text>
  <rect x="120" y="390" width="176" height="54" rx="27" fill="url(#button)"/>
  <text x="155" y="425" fill="white" font-family="Arial, Helvetica, sans-serif" font-size="18" font-weight="800">Launch App</text>
  <rect x="316" y="390" width="182" height="54" rx="27" fill="white" fill-opacity="0.08" stroke="#7DD3FC" stroke-opacity="0.35"/>
  <text x="352" y="425" fill="#E0F2FE" font-family="Arial, Helvetica, sans-serif" font-size="18" font-weight="800">Admin Panel</text>
  <defs>
    <radialGradient id="blueGlow" cx="0" cy="0" r="1" gradientUnits="userSpaceOnUse" gradientTransform="translate(1040 120) rotate(90) scale(260)">
      <stop stop-color="#38BDF8"/>
      <stop offset="1" stop-color="#38BDF8" stop-opacity="0"/>
    </radialGradient>
    <radialGradient id="orangeGlow" cx="0" cy="0" r="1" gradientUnits="userSpaceOnUse" gradientTransform="translate(170 510) rotate(90) scale(240)">
      <stop stop-color="#F97316"/>
      <stop offset="1" stop-color="#F97316" stop-opacity="0"/>
    </radialGradient>
    <linearGradient id="button" x1="120" y1="390" x2="296" y2="444" gradientUnits="userSpaceOnUse">
      <stop stop-color="#38BDF8"/>
      <stop offset="1" stop-color="#2563EB"/>
    </linearGradient>
  </defs>
</svg>
